<?xml version="1.0" encoding="UTF-8"?>
<svg version="1.1" xmlns="http://www.w3.org/2000/svg" width="50" height="50">
<path d="M0 0 C5.02047178 2.91351969 8.11702993 6.47462096 10.375 11.8125 C11.29189002 18.56853174 11.1040536 24.50729791 7.0078125 30.125 C0.49157015 36.85948971 -6.38259499 37.94214208 -15.3984375 38.3359375 C-18.86511471 38.84796488 -20.70301138 39.96108872 -23.625 41.8125 C-27.4375 42 -27.4375 42 -30.625 41.8125 C-29.635 38.8425 -28.645 35.8725 -27.625 32.8125 C-28.945 32.1525 -30.265 31.4925 -31.625 30.8125 C-35.66513296 25.65010789 -36.31872405 21.26142699 -36.06640625 14.75 C-35.24228784 9.26560139 -32.97665786 5.64258394 -28.6171875 2.25 C-20.01581341 -3.33613225 -9.44578372 -4.49061849 0 0 Z M-29.17578125 7.08203125 C-32.13204945 10.61202266 -33.70459489 14.21074208 -33.5625 18.85546875 C-32.65035813 23.76773276 -30.32576238 26.57127339 -26.95703125 30.13671875 C-25.04984586 32.53608102 -24.77165953 34.80597961 -24.625 37.8125 C-23.6659375 37.3175 -23.6659375 37.3175 -22.6875 36.8125 C-19.8158862 35.87483019 -18.30783657 35.75686473 -15.375 35.875 C-7.86705286 36.0121884 -1.56104879 33.72284326 3.92578125 28.54296875 C6.88204945 25.01297734 8.45459489 21.41425792 8.3125 16.76953125 C7.29959495 11.31461552 4.43795992 7.48572755 0.375 3.8125 C-9.35997697 -2.67748465 -20.87083779 -0.75829999 -29.17578125 7.08203125 Z " fill="#71717A" transform="translate(37.625,6.1875)"/>
</svg>
