<?xml version="1.0" encoding="UTF-8"?>
<svg version="1.1" xmlns="http://www.w3.org/2000/svg" width="512" height="512">
<path d="M0 0 C0.84789636 -0.0060911 1.69579272 -0.01218221 2.56938291 -0.01845789 C5.38568932 -0.03499008 8.20153874 -0.03032613 11.0178833 -0.0255127 C13.04735785 -0.03285879 15.07682822 -0.04144659 17.10629272 -0.05117798 C22.60236231 -0.07334786 28.09828176 -0.07632685 33.59438992 -0.07443047 C38.19148685 -0.07431053 42.78855225 -0.08288411 47.38564038 -0.09120798 C58.23736006 -0.11042651 69.08900283 -0.11333182 79.94073486 -0.10656738 C91.11352079 -0.09993057 102.28597625 -0.12278026 113.45869517 -0.15988111 C123.0700599 -0.19063224 132.68131862 -0.20193218 142.29273152 -0.1980443 C148.02477176 -0.19598208 153.75655488 -0.20137439 159.48854828 -0.22593689 C164.88302416 -0.24829031 170.27696505 -0.24625469 175.67144394 -0.22600937 C177.64299057 -0.22261431 179.61457383 -0.22762299 181.58607101 -0.24199295 C198.39515973 -0.35598658 210.47294465 2.25383737 223.03839111 14.23425293 C232.60982689 24.27809863 235.42060703 36.81911034 235.36940002 50.266922 C235.37322557 51.33997044 235.37705112 52.41301889 235.38099259 53.51858395 C235.39128481 57.10264956 235.38733756 60.68655383 235.38336182 64.27062988 C235.3877104 66.84506376 235.39289403 69.41949634 235.39884949 71.993927 C235.41157628 78.25437098 235.41339267 84.51477202 235.41104922 90.77522675 C235.40926346 95.86647974 235.41102123 100.95771974 235.41527367 106.04897118 C235.41586886 106.77463131 235.41646404 107.50029145 235.41707727 108.24794128 C235.41828907 109.72231697 235.41950321 111.19669265 235.42071965 112.67106833 C235.43158763 126.48751189 235.42943634 140.30393102 235.4233348 154.12037595 C235.4181676 166.74482639 235.42941719 179.36919963 235.44843302 191.9936348 C235.46783151 204.9721409 235.47606381 217.95061052 235.47230977 230.92913121 C235.47040061 238.20923764 235.47285733 245.48927838 235.48702431 252.76937294 C235.50021594 259.61729835 235.49765077 266.46506706 235.48461342 273.3129921 C235.48224978 275.8223558 235.48497467 278.3317304 235.49323654 280.84108162 C235.50372342 284.27454763 235.49558715 287.70749762 235.48292542 291.14094543 C235.4902997 292.12676662 235.49767398 293.11258781 235.50527173 294.12828237 C235.39818812 307.99343585 230.96577574 319.02665057 221.52667236 329.06628418 C209.90137188 340.25962681 196.16821218 342.60274731 180.60870361 342.45690918 C175.90620361 342.42597168 175.90620361 342.42597168 171.10870361 342.39440918 C171.10870361 350.31440918 171.10870361 358.23440918 171.10870361 366.39440918 C196.43752585 365.67484037 218.34424622 363.93219896 237.67120361 346.01940918 C238.47557861 345.15315918 239.27995361 344.28690918 240.10870361 343.39440918 C240.62948486 342.89038574 241.15026611 342.3863623 241.68682861 341.86706543 C256.81061161 326.30046897 259.2619735 304.89820401 259.25054932 284.21325684 C259.25402374 283.16775665 259.25749817 282.12225647 259.26107788 281.04507446 C259.26836933 278.79934838 259.27374946 276.5536154 259.27736855 274.3078804 C259.28460074 270.75149083 259.30031205 267.19523397 259.31871033 263.6388855 C259.37089902 253.5360889 259.41922026 243.43337323 259.43463135 233.33044434 C259.44470399 227.13082374 259.47399283 220.93155051 259.51595116 214.73206711 C259.52825757 212.37579344 259.53338308 210.01947079 259.53115273 207.66316605 C259.52880331 204.37479577 259.55093401 201.08742904 259.57867432 197.79919434 C259.57207291 196.82973877 259.5654715 195.8602832 259.55867004 194.8614502 C259.63718465 189.19603123 260.29116549 185.86978533 264.10870361 181.39440918 C268.45931707 177.45813986 272.02647367 176.75556999 277.71026611 177.01159668 C282.51936286 177.77917238 285.11683799 180.26978504 288.24041748 183.81144714 C291.22932156 188.46597352 290.66557928 193.74903712 290.62628174 199.09680176 C290.63679565 200.8566893 290.63679565 200.8566893 290.64752197 202.65213013 C290.66208605 205.8617159 290.65870136 209.07063906 290.64600563 212.28021455 C290.63582824 215.65819255 290.64528679 219.0361284 290.65155029 222.41410828 C290.65882398 228.09764455 290.64925799 233.78097288 290.63018799 239.46447754 C290.60853479 245.99231994 290.61538663 252.51966024 290.63749361 259.04748994 C290.65579451 264.68099403 290.65813171 270.31434899 290.64773893 275.94787329 C290.64156876 279.29914731 290.64210205 282.65000281 290.65388489 286.00129128 C290.74580698 319.52605713 282.66983969 346.18567714 258.89776611 370.67175293 C234.20820027 393.84690303 203.54271736 397.89487467 171.10870361 397.39440918 C171.1271936 398.50501709 171.1271936 398.50501709 171.14605713 399.63806152 C171.16043823 401.10686768 171.16043823 401.10686768 171.17510986 402.60534668 C171.19359985 404.05626709 171.19359985 404.05626709 171.21246338 405.53649902 C170.9084251 413.91078617 166.9696613 420.56631668 161.10870361 426.39440918 C153.82074923 431.86914858 147.02016557 434.49529864 137.88214111 434.43347168 C136.26058105 434.42501221 136.26058105 434.42501221 134.60626221 434.41638184 C133.78206787 434.40913086 132.95787354 434.40187988 132.10870361 434.39440918 C132.11869637 435.24432938 132.11869637 435.24432938 132.12889099 436.11141968 C132.195655 442.04944134 132.2406733 447.98735505 132.27349854 453.92565918 C132.28851398 456.13696632 132.30893252 458.34824403 132.33502197 460.55944824 C132.37172515 463.75190527 132.38850291 466.94396593 132.40167236 470.13659668 C132.41715622 471.11305145 132.43264008 472.08950623 132.44859314 473.09555054 C132.45127598 484.22767076 129.42034031 492.94698426 122.10870361 501.39440918 C113.20170151 510.03701048 104.06193164 513.0551712 91.86505127 512.93322754 C81.46907134 512.50015216 73.48216132 508.71999665 66.01104736 501.49206543 C57.75902972 492.39281805 55.62503864 482.16242789 55.81573486 470.13659668 C55.81997971 469.10753204 55.82422455 468.07846741 55.82859802 467.01821899 C55.84523723 463.76833652 55.88286131 460.51910059 55.92120361 457.26940918 C55.93626954 455.05066821 55.94995458 452.8319174 55.96221924 450.61315918 C55.99509211 445.20669285 56.04514153 439.80059723 56.10870361 434.39440918 C54.8909021 434.41398682 54.8909021 434.41398682 53.64849854 434.43395996 C52.5770459 434.44411133 51.50559326 434.4542627 50.40167236 434.46472168 C49.34230469 434.47777344 48.28293701 434.4908252 47.19146729 434.50427246 C38.40622831 434.19118483 30.37720376 429.80240279 24.31573486 423.54284668 C19.1549018 417.14596225 16.92758859 410.80698318 17.03839111 402.60144043 C17.04854248 401.62280029 17.05869385 400.64416016 17.06915283 399.63586426 C17.08220459 398.89618408 17.09525635 398.15650391 17.10870361 397.39440918 C16.49051758 397.40488281 15.87233154 397.41535645 15.2354126 397.42614746 C-18.4042208 397.91942468 -47.01839666 391.31455541 -71.93817139 367.39831543 C-89.06855384 350.34051934 -99.98598897 325.62315379 -100.18457031 301.41111755 C-100.18366394 300.30635574 -100.18275757 299.20159393 -100.18182373 298.06335449 C-100.18854095 296.8718428 -100.19525818 295.68033112 -100.20217896 294.45271301 C-100.21781676 291.21536172 -100.22452734 287.97816522 -100.22581053 284.74078083 C-100.22723981 282.7141366 -100.23152365 280.68751869 -100.23680496 278.66088104 C-100.25524398 271.58001514 -100.26348202 264.49922408 -100.26190186 257.41833496 C-100.26069739 250.83228581 -100.28187475 244.24656271 -100.31338918 237.66059613 C-100.33955942 231.98814527 -100.35026907 226.31580104 -100.34899104 220.64329028 C-100.34848225 217.26282138 -100.35412072 213.88264378 -100.37534714 210.50223541 C-100.39491858 206.73717446 -100.38920444 202.97296001 -100.37713623 199.20788574 C-100.38837524 198.09502701 -100.39961426 196.98216827 -100.41119385 195.83558655 C-100.36110576 189.69330155 -100.01825908 186.05597578 -95.89129639 181.39440918 C-91.54068293 177.45813986 -87.97352633 176.75556999 -82.28973389 177.01159668 C-77.44779061 177.78441499 -74.84377191 180.27610701 -71.7593689 183.89750671 C-69.23494813 188.6230477 -69.33228937 192.44300568 -69.37713623 197.71984863 C-69.36644859 199.26028084 -69.36644859 199.26028084 -69.35554504 200.83183289 C-69.33626518 204.22398126 -69.34454901 207.61550536 -69.35223389 211.00769043 C-69.34232031 213.37978519 -69.33037656 215.75187226 -69.3164978 218.12394714 C-69.2841097 224.37606054 -69.27374435 230.62799898 -69.26965332 236.88018799 C-69.26091035 246.84670281 -69.2249782 256.81307327 -69.17747879 266.77947044 C-69.16502845 270.23835676 -69.16564115 273.69705621 -69.16775513 277.15596008 C-69.13079051 298.39068269 -68.45981596 318.33275992 -55.89129639 336.39440918 C-55.31766357 337.22585449 -54.74403076 338.0572998 -54.15301514 338.91394043 C-43.57348391 353.17330861 -26.79504361 362.29745058 -9.31707764 364.93347168 C-4.02456744 365.55331522 1.28721048 365.74368278 6.60870361 365.95690918 C10.07370361 366.10128418 13.53870361 366.24565918 17.10870361 366.39440918 C17.10870361 358.47440918 17.10870361 350.55440918 17.10870361 342.39440918 C13.02495361 342.45628418 13.02495361 342.45628418 8.85870361 342.51940918 C-7.54537087 342.56072183 -20.48610296 339.5007419 -32.69989014 327.81628418 C-40.34938461 319.36229742 -45.00451689 308.19484958 -45.02272415 296.73655605 C-45.02848587 295.3689744 -45.02848587 295.3689744 -45.03436399 293.97376484 C-45.0334975 292.98097698 -45.03263102 291.98818911 -45.03173828 290.96531677 C-45.0347094 289.90370427 -45.03768053 288.84209177 -45.04074168 287.7483092 C-45.04942498 284.18494069 -45.05093664 280.62160579 -45.0524292 277.05822754 C-45.05705769 274.50556364 -45.06208239 271.95290044 -45.06747437 269.40023804 C-45.08059878 262.45986682 -45.08708051 255.51950667 -45.09148502 248.57912517 C-45.09425047 244.24200935 -45.09848843 239.90489576 -45.1029892 235.56778145 C-45.11518119 223.55018091 -45.12547988 211.53258214 -45.12886429 199.51497555 C-45.12919364 198.36169727 -45.12919364 198.36169727 -45.12952964 197.18512044 C-45.12985706 196.02913732 -45.12985706 196.02913732 -45.13019109 194.849801 C-45.13063455 193.28825438 -45.13108111 191.72670776 -45.13153076 190.16516113 C-45.13175219 189.39058591 -45.13197362 188.61601069 -45.13220176 187.81796349 C-45.13614647 175.27806666 -45.15359079 162.73822806 -45.17689028 150.1983537 C-45.20064037 137.31147373 -45.21306784 124.42462294 -45.21423221 111.53772074 C-45.21514704 104.3072747 -45.22085066 97.07690449 -45.23905182 89.84647942 C-45.25612256 83.04127523 -45.25767814 76.23623908 -45.24891281 69.4310112 C-45.24814347 66.93819226 -45.25247145 64.44536554 -45.26237106 61.95256615 C-45.27512827 58.53900355 -45.26919283 55.12594681 -45.25878906 51.71238708 C-45.26684547 50.73521428 -45.27490187 49.75804147 -45.28320241 48.75125736 C-45.17813721 33.92419264 -40.42010683 22.44787754 -30.34832764 11.69128418 C-21.83274913 3.73077518 -11.54352781 -0.07943729 0 0 Z M-8.64129639 34.64440918 C-14.15759991 41.38655793 -14.28074167 46.86020058 -14.07879639 55.26940918 C-14.06526123 56.33933105 -14.05172607 57.40925293 -14.03778076 58.51159668 C-14.00258262 61.13972429 -13.95334332 63.76680112 -13.89129639 66.39440918 C-13.10282318 66.39805481 -12.31434998 66.40170044 -11.50198364 66.40545654 C-4.05720889 66.44338436 3.38706808 66.50029062 10.83152199 66.57831192 C14.65847061 66.61775616 18.4851902 66.64995929 22.31231689 66.66540527 C26.0084454 66.68059248 29.70394413 66.71507321 33.39979172 66.7627182 C34.80706674 66.77751099 36.21443169 66.78544899 37.62178421 66.78629303 C39.59881392 66.78867039 41.57575437 66.81807864 43.55255127 66.84851074 C45.23799545 66.86183441 45.23799545 66.86183441 46.95748901 66.87542725 C50.8619418 67.51846199 53.0350496 68.93998341 56.10870361 71.39440918 C59.00163033 76.15374023 59.53034695 79.87312659 58.68682861 85.24597168 C57.63032149 89.17218057 55.79654601 92.28909044 52.36755371 94.53463745 C49.42124147 95.65607352 46.93229702 95.67602028 43.77960205 95.71325684 C42.49857605 95.73312653 41.21755005 95.75299622 39.89770508 95.77346802 C38.50449801 95.78534354 37.11128912 95.79700645 35.71807861 95.80847168 C34.28888841 95.8271875 32.85970921 95.84676123 31.43054199 95.86715698 C27.67578625 95.91844066 23.9209947 95.95808634 20.16607666 95.99530029 C15.65717004 96.04241219 11.14844059 96.10399383 6.63967896 96.16314697 C-0.20390783 96.25131342 -7.04746146 96.32110993 -13.89129639 96.39440918 C-13.89129639 105.96440918 -13.89129639 115.53440918 -13.89129639 125.39440918 C-9.56906982 125.43179199 -5.24684326 125.4691748 -0.79364014 125.50769043 C2.66588562 125.54583178 6.12534913 125.5869043 9.58481598 125.62995148 C13.22939432 125.67450153 16.87386063 125.71395904 20.51861572 125.74084473 C24.03312655 125.76697015 27.54721342 125.80743618 31.06146049 125.85759544 C33.04594685 125.88225046 35.03059755 125.89228506 37.01521301 125.90205383 C44.71981029 126.02698328 50.47554831 126.23930062 56.48370361 131.45690918 C59.16430691 136.30261513 59.94318954 141.31562261 58.47979736 146.71472168 C56.30124752 151.65519873 54.14320267 153.23293791 49.10870361 155.39440918 C45.99545288 155.7931366 45.99545288 155.7931366 42.64434814 155.82678223 C41.38349396 155.84657639 40.12263977 155.86637054 38.82357788 155.88676453 C37.46289215 155.8935327 36.10220479 155.89997975 34.74151611 155.90612793 C33.33760012 155.92298868 31.93369909 155.9411408 30.52981567 155.96052551 C26.85069456 156.00788069 23.17163415 156.03778317 19.49230957 156.06396484 C15.73150734 156.09384394 11.97090982 156.14018927 8.21026611 156.1854248 C0.843063 156.27283919 -6.52364909 156.33290608 -13.89129639 156.39440918 C-13.89129639 165.96440918 -13.89129639 175.53440918 -13.89129639 185.39440918 C-9.4014917 185.43179199 -4.91168701 185.4691748 -0.28582764 185.50769043 C3.29945498 185.54581028 6.88467677 185.586883 10.46990204 185.62995148 C14.25158155 185.67457071 18.03315132 185.71401437 21.81500244 185.74084473 C25.4591754 185.76689936 29.10293456 185.80731627 32.74685097 185.85759544 C34.13541826 185.87424971 35.5240571 185.88577298 36.91271019 185.89202309 C38.86121381 185.9016789 40.80958603 185.93145179 42.75787354 185.96203613 C44.4200013 185.97869072 44.4200013 185.97869072 46.1157074 185.99568176 C49.45981186 186.44118388 51.32330739 187.5529868 54.10870361 189.39440918 C54.76870361 189.39440918 55.42870361 189.39440918 56.10870361 189.39440918 C58.67282781 195.52223141 60.11603606 200.88281857 58.10870361 207.39440918 C55.72625859 211.68281023 52.75526809 213.92529457 48.10870361 215.39440918 C45.15367126 215.67288208 45.15367126 215.67288208 41.84967041 215.71325684 C40.60876144 215.73312653 39.36785248 215.75299622 38.08934021 215.77346802 C36.74553607 215.78534247 35.40173005 215.79700544 34.05792236 215.80847168 C32.67500161 215.82719416 31.29209214 215.84676838 29.90919495 215.86715698 C26.28104323 215.91837036 22.65285452 215.95805349 19.02453613 215.99530029 C15.31747402 216.03540792 11.61056195 216.08636398 7.90362549 216.13659668 C0.63870918 216.23424887 -6.62608992 216.31384955 -13.89129639 216.39440918 C-13.89129639 225.96440918 -13.89129639 235.53440918 -13.89129639 245.39440918 C-9.42469482 245.42019043 -4.95809326 245.44597168 -0.35614014 245.47253418 C3.21809204 245.50423682 6.79223659 245.53988843 10.36640167 245.57820129 C14.13232731 245.61749088 17.89801842 245.64991323 21.66412354 245.66540527 C25.29542236 245.68061275 28.92608277 245.71512902 32.55709648 245.7627182 C33.93842438 245.77749021 35.31984345 245.78544779 36.70125008 245.78629303 C50.3279569 245.80300766 50.3279569 245.80300766 56.10870361 250.39440918 C59.06389032 255.10423799 59.54722987 258.8933424 58.67120361 264.24987793 C57.76561988 267.70241591 56.53856352 269.77763697 54.10870361 272.39440918 C46.93953086 275.95820453 40.10119381 275.86642146 32.20245361 275.90612793 C30.86865617 275.92300136 29.53487436 275.94115513 28.20111084 275.96052551 C24.71601248 276.00774336 21.23097756 276.0377339 17.7456665 276.06396484 C14.17905147 276.09391414 10.61265448 276.14039449 7.04620361 276.1854248 C0.0671618 276.2711359 -6.91195288 276.33862308 -13.89129639 276.39440918 C-14.00867579 279.89412117 -14.078936 283.39331873 -14.14129639 286.89440918 C-14.17481201 287.8766748 -14.20832764 288.85894043 -14.24285889 289.87097168 C-14.32731395 296.20510149 -13.70723667 301.1808446 -9.89129639 306.39440918 C-4.09525443 311.10369327 0.50108038 311.54354736 7.74902344 311.53485107 C8.90949562 311.53930776 8.90949562 311.53930776 10.09341168 311.54385448 C12.68803817 311.55253204 15.28261846 311.55404893 17.8772583 311.55554199 C19.73676655 311.56017084 21.59627384 311.5651956 23.45578003 311.57058716 C28.50963779 311.58370698 33.56348226 311.59015534 38.61735439 311.59459782 C41.77533331 311.59752931 44.93330861 311.60163427 48.09128571 311.60610199 C57.97337539 311.61977603 67.85545678 311.62944306 77.73755527 311.63330388 C89.14210961 311.63778407 100.54654407 311.65533058 111.95106196 311.68430448 C120.76818231 311.70592676 129.58526894 311.71600846 138.40241551 311.717345 C143.66762351 311.71839266 148.9327188 311.72429231 154.19789886 311.74216461 C159.1522396 311.7586546 164.10638301 311.76079624 169.06074142 311.7520256 C170.87635451 311.75125572 172.69197825 311.75559152 174.50756454 311.76548386 C176.99209307 311.77822409 179.47592489 311.77231555 181.96044922 311.76190186 C183.03032267 311.77398646 183.03032267 311.77398646 184.12180972 311.7863152 C189.64830672 311.732386 195.45555916 310.78898902 199.67819285 306.97787595 C203.34025061 302.73905931 204.23653293 299.53151531 204.20635986 294.07019043 C204.20313721 293.04216309 204.19991455 292.01413574 204.19659424 290.95495605 C204.18821533 289.88310059 204.17983643 288.81124512 204.17120361 287.70690918 C204.16443604 286.08172363 204.16443604 286.08172363 204.15753174 284.42370605 C204.14574104 281.74721833 204.12928425 279.07084141 204.10870361 276.39440918 C203.37478394 276.38854294 202.64086426 276.3826767 201.88470459 276.37663269 C194.94097971 276.31853561 187.99752557 276.24636236 181.0541153 276.15869427 C177.48509515 276.11411952 173.91618576 276.07483594 170.34698486 276.04797363 C166.897305 276.02181067 163.44805433 275.98131908 159.99864197 275.93122292 C158.05353547 275.90661602 156.10826246 275.89654311 154.1630249 275.88676453 C147.47249698 275.77646229 142.13688546 275.40536229 136.10870361 272.39440918 C132.49125744 268.31318785 131.29908007 264.82013829 131.10870361 259.39440918 C131.98370361 255.64440918 131.98370361 255.64440918 133.10870361 252.39440918 C133.43870361 251.40440918 133.76870361 250.41440918 134.10870361 249.39440918 C138.4213131 246.80684348 142.26540981 246.25848714 147.23248291 246.18908691 C148.49356369 246.16914169 149.75464447 246.14919647 151.05393982 246.12864685 C152.43026608 246.11166385 153.80659363 246.09478499 155.18292236 246.07800293 C156.59111636 246.05742721 157.99930426 246.03643058 159.40748596 246.01502991 C163.11130842 245.95987296 166.81518603 245.91043564 170.519104 245.86218262 C174.29967134 245.81192097 178.08015973 245.75631144 181.86065674 245.7010498 C189.27661183 245.59304057 196.69261095 245.49396826 204.10870361 245.39440918 C204.10870361 235.82440918 204.10870361 226.25440918 204.10870361 216.39440918 C199.78647705 216.35702637 195.46425049 216.31964355 191.01104736 216.28112793 C187.55152161 216.24298658 184.0920581 216.20191406 180.63259125 216.15886688 C176.98801291 216.11431683 173.34354659 216.07485932 169.6987915 216.04797363 C166.18428067 216.02184821 162.67019381 215.98138218 159.15594673 215.93122292 C157.17146038 215.9065679 155.18680967 215.8965333 153.20219421 215.88676453 C146.80562183 215.7830446 141.68164256 215.6916373 136.10870361 212.39440918 C132.55488507 208.27946139 131.20238959 204.8281959 131.10870361 199.39440918 C132.04657207 194.97065798 133.37447125 192.09282533 136.67120361 188.95690918 C140.48476019 186.51232163 142.57819799 186.25240428 147.11895752 186.18908691 C148.38011383 186.16914169 149.64127014 186.14919647 150.94064331 186.12864685 C152.32218298 186.11166253 153.70372395 186.09478372 155.08526611 186.07800293 C156.49488944 186.05743358 157.90450658 186.03643711 159.31411743 186.01502991 C163.02617397 185.95980723 166.73828618 185.91039887 170.45043945 185.86218262 C174.90335183 185.80314216 179.35616233 185.73691312 183.80899048 185.67188263 C190.57549936 185.57387061 197.34207326 185.48501648 204.10870361 185.39440918 C204.10870361 175.82440918 204.10870361 166.25440918 204.10870361 156.39440918 C199.63050049 156.36862793 195.15229736 156.34284668 190.53839111 156.31628418 C186.95862752 156.28458956 183.37895179 156.24893844 179.79925537 156.21061707 C176.02543314 156.1713001 172.25184594 156.13889081 168.47784424 156.12341309 C164.84006566 156.10822411 161.20292673 156.07374037 157.5654335 156.02610016 C156.18048805 156.01130916 154.79545127 156.00336947 153.41042709 156.00252533 C144.60641909 155.99176678 139.60402688 155.88973244 133.29620361 149.58190918 C130.7657447 144.92053749 130.78127404 140.70736587 132.17120361 135.70690918 C133.78751051 131.33468729 135.89018065 129.50367066 140.10870361 127.39440918 C143.30997487 126.32731876 145.68227984 126.23767715 149.04888916 126.18908691 C150.26992844 126.16914169 151.49096771 126.14919647 152.74900818 126.12864685 C154.7272332 126.10357811 154.7272332 126.10357811 156.74542236 126.07800293 C158.10877606 126.05742658 159.47212346 126.03642993 160.83546448 126.01502991 C164.42091784 125.95987948 168.0064281 125.91043931 171.59197998 125.86218262 C175.25190272 125.81191619 178.91174403 125.75630908 182.57159424 125.7010498 C189.75056823 125.59304934 196.92958775 125.49397201 204.10870361 125.39440918 C204.10870361 115.82440918 204.10870361 106.25440918 204.10870361 96.39440918 C199.54671143 96.35702637 194.98471924 96.31964355 190.28448486 96.28112793 C187.39056721 96.2508439 184.49671075 96.2196934 181.60284424 96.1854248 C177.01181144 96.13114113 172.42089969 96.08002979 167.82965088 96.04797363 C164.12712667 96.02192151 160.4250099 95.9815063 156.72273827 95.93122292 C155.31184147 95.91456697 153.90087422 95.90304474 152.48989296 95.89679527 C150.51025814 95.88714129 148.53075261 95.85736967 146.55133057 95.82678223 C144.86255547 95.81012764 144.86255547 95.81012764 143.1396637 95.7931366 C138.73005965 95.21304647 136.07633015 93.63850044 133.35870361 90.14440918 C131.2520012 85.50966387 130.86972598 81.78047947 131.73370361 76.76940918 C133.49377939 72.44922318 135.89230844 69.50260677 140.10870361 67.39440918 C142.14030834 67.27402957 144.17577802 67.21701796 146.21075439 67.18908691 C147.49193146 67.16914169 148.77310852 67.14919647 150.09310913 67.12864685 C151.49674355 67.11166249 152.90037925 67.09478368 154.30401611 67.07800293 C155.73605959 67.05743378 157.16809698 67.03643732 158.60012817 67.01502991 C162.37136924 66.95980515 166.14266513 66.9103977 169.91400146 66.86218262 C173.76150397 66.81197051 177.60892674 66.75628294 181.45635986 66.7010498 C189.00707361 66.59346331 196.55785361 66.49201947 204.10870361 66.39440918 C204.22563863 62.54050101 204.29619982 58.68705406 204.35870361 54.83190918 C204.40897705 53.20285645 204.40897705 53.20285645 204.46026611 51.54089355 C204.5411074 44.89169776 204.15849353 40.75764447 200.10870361 35.39440918 C194.12166314 30.55382326 188.8767816 30.24447571 181.41732788 30.26069641 C180.65028687 30.25843085 179.88324587 30.2561653 179.09296119 30.25383109 C176.52674146 30.24750887 173.96057479 30.24831931 171.39434814 30.24914551 C169.55277437 30.24615292 167.71120123 30.24275016 165.86962891 30.2389679 C160.86961109 30.23013413 155.86961038 30.22779005 150.86958551 30.22715211 C147.74527846 30.22644129 144.62097575 30.22430636 141.49666977 30.22165489 C130.59569777 30.21240376 119.694738 30.20831974 108.79376221 30.20910645 C98.63442909 30.20970728 88.47514907 30.19915372 78.3158294 30.18336278 C69.59127271 30.17028544 60.86673338 30.16492263 52.14216697 30.16556185 C46.93236606 30.16581677 41.72261234 30.16296895 36.5128212 30.1523838 C31.61267174 30.14269953 26.71261457 30.14262594 21.81246185 30.14990044 C20.01578257 30.15094584 18.21909754 30.14858599 16.42242813 30.14253998 C13.96619274 30.13481088 11.51027529 30.13947087 9.05404663 30.14717102 C8.34634884 30.14202746 7.63865105 30.13688389 6.90950787 30.13158447 C1.01565137 30.1722985 -4.00891529 30.85427919 -8.64129639 34.64440918 Z M48.10870361 342.39440918 C48.08807861 352.27378418 48.06745361 362.15315918 48.04620361 372.33190918 C48.03709961 375.45522705 48.02799561 378.57854492 48.01861572 381.79650879 C48.01569683 384.25492306 48.01314821 386.71333782 48.01104736 389.17175293 C48.0059314 390.46214478 48.00081543 391.75253662 47.99554443 393.08203125 C47.99542358 394.30007446 47.99530273 395.51811768 47.99517822 396.77307129 C47.99295761 397.83674423 47.990737 398.90041718 47.9884491 399.99632263 C47.83753599 402.34684332 47.83753599 402.34684332 49.10870361 403.39440918 C51.90322632 403.49492793 54.67306716 403.53056812 57.46807861 403.52380371 C58.3444397 403.52555603 59.22080078 403.52730835 60.12371826 403.52911377 C63.03539989 403.5335335 65.94702131 403.53059387 68.85870361 403.52722168 C70.87270113 403.52789468 72.88669856 403.52886468 74.9006958 403.53012085 C79.12759167 403.53159799 83.35446644 403.52944276 87.58135986 403.52478027 C93.01250894 403.51908298 98.4436086 403.5223619 103.87475586 403.52835274 C108.03530249 403.53195792 112.1958373 403.53081996 116.35638428 403.52822495 C118.35955816 403.52755556 120.36273311 403.52838451 122.36590576 403.5307045 C125.16040914 403.53323033 127.95483132 403.52939142 130.74932861 403.52380371 C131.58572876 403.52582794 132.42212891 403.52785217 133.28387451 403.52993774 C136.99927797 403.87322589 136.99927797 403.87322589 140.10870361 402.39440918 C140.20256742 400.52259978 140.22614165 398.64722858 140.222229 396.77307129 C140.22204773 394.94600647 140.22204773 394.94600647 140.22186279 393.08203125 C140.21674683 391.7916394 140.21163086 390.50124756 140.20635986 389.17175293 C140.20484924 387.40402527 140.20484924 387.40402527 140.20330811 385.60058594 C140.19805677 381.17768386 140.18409566 376.75479559 140.17120361 372.33190918 C140.14026611 357.51284668 140.14026611 357.51284668 140.10870361 342.39440918 C109.74870361 342.39440918 79.38870361 342.39440918 48.10870361 342.39440918 Z M87.10870361 434.39440918 C87.00981323 440.44497913 86.93722443 446.49507853 86.88897705 452.54626465 C86.86886392 454.60461623 86.84156964 456.6629107 86.8069458 458.72106934 C86.75841478 461.68003431 86.73573195 464.63824379 86.71807861 467.59753418 C86.69743347 468.51746155 86.67678833 469.43738892 86.65551758 470.38519287 C86.61272981 475.52091922 86.61272981 475.52091922 88.94561768 479.97546387 C91.9106065 481.92044299 93.63072668 481.974072 97.10870361 481.39440918 C99.4632718 480.03713729 99.4632718 480.03713729 101.10870361 477.39440918 C101.66692612 474.12605874 101.57354764 470.90466157 101.49932861 467.59753418 C101.49366882 466.64876404 101.48800903 465.6999939 101.48217773 464.72247314 C101.45980971 461.69593582 101.40961219 458.67058789 101.35870361 455.64440918 C101.33863918 453.59104088 101.32038831 451.53765399 101.30401611 449.48425293 C101.25994342 444.45384762 101.19091253 439.42432997 101.10870361 434.39440918 C96.48870361 434.39440918 91.86870361 434.39440918 87.10870361 434.39440918 Z " fill="#fff" transform="translate(160.89129638671875,-0.3944091796875)"/>
</svg>
